<svg xmlns="http://www.w3.org/2000/svg" xmlns:xlink="http://www.w3.org/1999/xlink" width="500" zoomAndPan="magnify" viewBox="0 0 375 374.999991" height="500" preserveAspectRatio="xMidYMid meet" version="1.0"><defs><clipPath id="b3fef3dc8c"><path d="M 0 4.21875 L 375 4.21875 L 375 370.96875 L 0 370.96875 Z M 0 4.21875 " clip-rule="nonzero"/></clipPath></defs><g clip-path="url(#b3fef3dc8c)"><path fill="#ffffff" d="M 187.5 4.21875 C 84.1875 4.21875 0.144531 88.265625 0.144531 191.574219 L 0.144531 191.78125 C 0.21875 200.683594 7.535156 207.863281 16.4375 207.863281 L 17.265625 207.863281 L 357.734375 207.847656 L 357.734375 207.863281 L 358.5625 207.863281 C 367.457031 207.863281 374.773438 200.683594 374.855469 191.78125 L 374.855469 191.574219 C 374.855469 88.265625 290.8125 4.21875 187.5 4.21875 Z M 359.976562 232.285156 L 15.039062 232.300781 C 9.652344 232.300781 5.800781 237.480469 7.257812 242.660156 C 7.273438 242.714844 7.289062 242.761719 7.304688 242.820312 C 8.28125 246.265625 11.5 248.59375 15.085938 248.59375 L 359.929688 248.578125 C 363.507812 248.578125 366.726562 246.25 367.695312 242.800781 C 367.710938 242.746094 367.726562 242.699219 367.742188 242.644531 C 369.199219 237.460938 365.363281 232.285156 359.976562 232.285156 Z M 342.714844 273.015625 L 32.285156 273.03125 C 26.058594 273.03125 22.148438 279.792969 25.265625 285.171875 C 25.300781 285.226562 25.339844 285.289062 25.363281 285.34375 C 26.804688 287.828125 29.503906 289.324219 32.378906 289.324219 L 342.636719 289.308594 C 345.511719 289.308594 348.210938 287.8125 349.652344 285.328125 C 349.6875 285.273438 349.722656 285.210938 349.75 285.15625 C 352.867188 279.777344 348.929688 273.015625 342.714844 273.015625 Z M 64.484375 313.761719 C 57.203125 313.761719 53.621094 322.6875 58.902344 327.699219 C 58.957031 327.746094 59.011719 327.808594 59.058594 327.855469 C 60.574219 329.28125 62.589844 330.050781 64.660156 330.050781 L 310.339844 330.035156 C 312.410156 330.035156 314.433594 329.273438 315.941406 327.855469 C 315.996094 327.808594 316.050781 327.746094 316.097656 327.699219 C 321.386719 322.6875 317.796875 313.761719 310.515625 313.761719 Z M 122.332031 354.488281 C 121.792969 354.480469 121.257812 354.527344 120.726562 354.625 C 120.195312 354.726562 119.679688 354.875 119.179688 355.078125 C 118.679688 355.277344 118.203125 355.527344 117.753906 355.820312 C 117.300781 356.117188 116.882812 356.457031 116.5 356.835938 C 116.113281 357.214844 115.769531 357.625 115.46875 358.074219 C 115.167969 358.519531 114.910156 358.992188 114.703125 359.492188 C 114.496094 359.988281 114.335938 360.503906 114.230469 361.03125 C 114.125 361.5625 114.070312 362.09375 114.070312 362.636719 C 114.070312 363.175781 114.125 363.710938 114.230469 364.238281 C 114.335938 364.769531 114.496094 365.28125 114.703125 365.78125 C 114.910156 366.277344 115.167969 366.75 115.46875 367.195312 C 115.769531 367.644531 116.113281 368.058594 116.5 368.4375 C 116.882812 368.816406 117.300781 369.152344 117.753906 369.449219 C 118.203125 369.746094 118.679688 369.992188 119.179688 370.195312 C 119.679688 370.394531 120.195312 370.546875 120.726562 370.644531 C 121.257812 370.742188 121.792969 370.789062 122.332031 370.78125 L 252.667969 370.78125 C 253.207031 370.789062 253.742188 370.742188 254.273438 370.644531 C 254.804688 370.546875 255.320312 370.394531 255.820312 370.195312 C 256.320312 369.992188 256.796875 369.746094 257.246094 369.449219 C 257.699219 369.152344 258.117188 368.816406 258.5 368.4375 C 258.886719 368.058594 259.230469 367.644531 259.53125 367.195312 C 259.832031 366.75 260.089844 366.277344 260.296875 365.78125 C 260.503906 365.28125 260.664062 364.769531 260.769531 364.238281 C 260.875 363.710938 260.929688 363.175781 260.929688 362.636719 C 260.929688 362.09375 260.875 361.5625 260.769531 361.03125 C 260.664062 360.503906 260.503906 359.988281 260.296875 359.492188 C 260.089844 358.992188 259.832031 358.519531 259.53125 358.074219 C 259.230469 357.625 258.886719 357.214844 258.5 356.835938 C 258.117188 356.457031 257.699219 356.117188 257.246094 355.820312 C 256.796875 355.527344 256.320312 355.277344 255.820312 355.078125 C 255.320312 354.875 254.804688 354.726562 254.273438 354.625 C 253.742188 354.527344 253.207031 354.480469 252.667969 354.488281 Z M 122.332031 354.488281 " fill-opacity="1" fill-rule="nonzero"/></g></svg>